<svg width="36" height="36" viewBox="0 0 36 36" fill="none" xmlns="http://www.w3.org/2000/svg">
<g filter="url(#filter0_d_300_96)">
<rect x="2" y="2" width="32" height="32" rx="16" fill="white" shape-rendering="crispEdges"/>
<path d="M23.3862 22.0718L23.4944 14.0725M17.7762 17.9889L17.7796 17.7416C17.7797 15.7607 17.879 15.0733 18.7079 15.4046L18.9116 15.528L19.076 15.6456L19.4289 15.9257L20.0877 16.5147L20.7619 17.0992L21.0911 17.4057L21.2377 17.559L21.4089 17.814L21.4419 18.0385L21.4029 18.2606L21.2248 18.5116L21.0741 18.6602L20.7367 18.9577L20.047 19.5244L19.3726 20.0953L19.0122 20.3652L18.8447 20.4782L18.6377 20.5968C17.8001 20.9048 17.7194 20.2157 17.7729 18.2355L17.7762 17.9889ZM17.7762 17.9889L12.7747 17.9213" stroke="#747A8B" stroke-linecap="round" stroke-linejoin="round"/>
</g>
<defs>
<filter id="filter0_d_300_96" x="0" y="0" width="36" height="36" filterUnits="userSpaceOnUse" color-interpolation-filters="sRGB">
<feFlood flood-opacity="0" result="BackgroundImageFix"/>
<feColorMatrix in="SourceAlpha" type="matrix" values="0 0 0 0 0 0 0 0 0 0 0 0 0 0 0 0 0 0 127 0" result="hardAlpha"/>
<feOffset/>
<feGaussianBlur stdDeviation="1"/>
<feComposite in2="hardAlpha" operator="out"/>
<feColorMatrix type="matrix" values="0 0 0 0 0 0 0 0 0 0 0 0 0 0 0 0 0 0 0.1 0"/>
<feBlend mode="normal" in2="BackgroundImageFix" result="effect1_dropShadow_300_96"/>
<feBlend mode="normal" in="SourceGraphic" in2="effect1_dropShadow_300_96" result="shape"/>
</filter>
</defs>
</svg>
