<svg width="24" height="24" viewBox="0 0 24 24" fill="none" xmlns="http://www.w3.org/2000/svg">
<path d="M20 13V10.657C20 9.839 20 9.431 19.848 9.063C19.696 8.696 19.407 8.406 18.828 7.828L14.092 3.092C13.593 2.593 13.344 2.344 13.034 2.196C12.9698 2.16518 12.9041 2.13781 12.837 2.114C12.514 2 12.161 2 11.456 2C8.211 2 6.588 2 5.489 2.886C5.26709 3.06494 5.06494 3.26709 4.886 3.489C4 4.59 4 6.211 4 9.456V14C4 17.771 4 19.657 5.172 20.828C6.235 21.892 7.886 21.99 11 22M13 2.5V3C13 5.828 13 7.243 13.879 8.121C14.757 9 16.172 9 19 9H19.5" stroke="#DB1F26" stroke-width="1.5" stroke-linecap="round" stroke-linejoin="round"/>
<path d="M20 21.9999L17.853 19.8529M17.853 19.8529C18.4957 19.2098 18.8568 18.338 18.857 17.4289C18.8571 16.6355 18.5821 15.8667 18.0788 15.2534C17.5756 14.6401 16.8752 14.2202 16.0971 14.0654C15.319 13.9106 14.5113 14.0304 13.8116 14.4044C13.112 14.7784 12.5636 15.3834 12.26 16.1164C11.9564 16.8493 11.9164 17.6649 12.1467 18.4241C12.3771 19.1832 12.8635 19.8391 13.5232 20.2798C14.1829 20.7205 14.975 20.9188 15.7645 20.841C16.554 20.7631 17.2921 20.4139 17.853 19.8529Z" stroke="#DB1F26" stroke-width="1.5" stroke-linecap="round" stroke-linejoin="round"/>
</svg>
